<svg width="129" height="33" viewBox="0 0 129 33" fill="none" xmlns="http://www.w3.org/2000/svg">
<path d="M108.672 33.0008H109.343V29.8184H109.355L110.472 33.0008H111.053L112.171 29.8184H112.182V33.0008H112.854V28.8771H111.872L110.788 32.1056H110.777L109.665 28.8771H108.672V33.0008H108.672ZM104.953 29.5007H106.228V33.0008H106.933V29.5007H108.215V28.8771H104.953V29.5007H104.953ZM96.7532 33.0008L129.003 0.000790952H109.593L77.344 33.0008H96.7542H96.7532ZM92.1294 14.3723H53.0886C41.1905 14.3723 39.1082 15.0179 34.0116 20.2325C29.2453 25.1097 21.5029 33.0013 21.5029 33.0013H38.4148L42.4494 28.8729C45.102 26.1587 46.4699 25.8775 52.0397 25.8775H80.8863L92.1286 14.3726L92.1294 14.3723ZM33.4913 17.8792C29.9714 21.2775 22.3124 28.8902 18.1844 33.0009H0.00292969C0.00292969 33.0009 14.5713 18.1366 22.6693 9.9801C31.012 1.85385 35.1705 0.000350952 50.4731 0.000350952H106.175L94.1149 12.3412H51.6051C40.8529 12.3412 38.4374 13.1037 33.4924 17.8791L33.4913 17.8792Z" fill="white"/>
</svg>
